<mxfile host="app.diagrams.net" modified="2024-02-21T12:23:24.134Z" agent="Mozilla/5.0 (X11; Linux x86_64) AppleWebKit/537.36 (KHTML, like Gecko) Chrome/114.0.0.0 Safari/537.36" etag="x9kxD0XQDbwUIqfmDAy7" version="23.1.5" type="github">
  <diagram name="Page-1" id="Bkufb93Qv5DnOYQHKYSi">
    <mxGraphModel dx="1120" dy="495" grid="1" gridSize="10" guides="1" tooltips="1" connect="1" arrows="1" fold="1" page="1" pageScale="1" pageWidth="827" pageHeight="1169" math="0" shadow="0">
      <root>
        <mxCell id="0" />
        <mxCell id="1" parent="0" />
        <mxCell id="D_oU_qUZFK04KDSvopVL-4" value="START" style="strokeWidth=2;html=1;shape=mxgraph.flowchart.start_1;whiteSpace=wrap;" vertex="1" parent="1">
          <mxGeometry x="260" y="590" width="100" height="60" as="geometry" />
        </mxCell>
        <mxCell id="D_oU_qUZFK04KDSvopVL-5" value="END" style="strokeWidth=2;html=1;shape=mxgraph.flowchart.start_1;whiteSpace=wrap;" vertex="1" parent="1">
          <mxGeometry x="440" y="880" width="100" height="60" as="geometry" />
        </mxCell>
        <mxCell id="D_oU_qUZFK04KDSvopVL-6" value="Assign roles" style="rounded=0;whiteSpace=wrap;html=1;" vertex="1" parent="1">
          <mxGeometry x="250" y="730" width="120" height="60" as="geometry" />
        </mxCell>
        <mxCell id="D_oU_qUZFK04KDSvopVL-7" value="" style="endArrow=classic;html=1;rounded=0;" edge="1" parent="1">
          <mxGeometry width="50" height="50" relative="1" as="geometry">
            <mxPoint x="310" y="650" as="sourcePoint" />
            <mxPoint x="310" y="730" as="targetPoint" />
          </mxGeometry>
        </mxCell>
        <mxCell id="D_oU_qUZFK04KDSvopVL-8" value="" style="endArrow=classic;html=1;rounded=0;" edge="1" parent="1">
          <mxGeometry width="50" height="50" relative="1" as="geometry">
            <mxPoint x="309.5" y="790" as="sourcePoint" />
            <mxPoint x="309.5" y="870" as="targetPoint" />
          </mxGeometry>
        </mxCell>
        <mxCell id="D_oU_qUZFK04KDSvopVL-9" value="Compile ratings/reports" style="rounded=0;whiteSpace=wrap;html=1;" vertex="1" parent="1">
          <mxGeometry x="250" y="870" width="120" height="60" as="geometry" />
        </mxCell>
        <mxCell id="D_oU_qUZFK04KDSvopVL-10" value="" style="endArrow=classic;html=1;rounded=0;" edge="1" parent="1">
          <mxGeometry width="50" height="50" relative="1" as="geometry">
            <mxPoint x="370" y="910" as="sourcePoint" />
            <mxPoint x="440" y="910" as="targetPoint" />
          </mxGeometry>
        </mxCell>
      </root>
    </mxGraphModel>
  </diagram>
</mxfile>
